<?xml version="1.0" encoding="UTF-8"?><svg id="Ebene_1" xmlns="http://www.w3.org/2000/svg" width="36.0451mm" height="12.5398mm" viewBox="0 0 102.1751 35.5458"><defs><style>.cls-1{fill:#1d1d1b;}</style></defs><path class="cls-1" d="M100.8951,23.5139l-1.794,4.928h-.064c-.161-1.008-.833-1.5359-1.985-1.5359-2.016,0-3.8199,1.616-4.804,4.32-.459,1.2612-.5535,2.2735-.334,3.0078h-1.9131l1.5202-4.1758c.728-2,.011-3.152-1.717-3.152-1.36,0-2.262,.72-2.911,1.5359h-.064l.489-1.344h-1.28l-2.5974,7.136h-2.2396l1.654-4.544c.635-1.744-.219-2.784-2.155-2.784-1.68,0-3.027,.8-3.757,1.664l.631,.64c.706-.752,1.546-1.216,2.65-1.216,1.248,0,1.741,.624,1.3051,1.824l-.297,.816h-1.76c-2.48,0-3.873,.88-4.426,2.4-.1716,.4714-.2075,.8801-.1453,1.232h-5.0227l2.213-6.08h3.76l.396-1.088h-3.76l1.06-2.912h-1.232l-.787,2.16c-.203,.56-.481,.752-1.025,.752h-2.6098c-.955-.0352-1.3918,0-1.9077,.0206-2.007,.0804-3.0395,.6034-3.6395,2.2514-.652,1.792,.895,2.112,1.999,2.288l1.226,.192c.711,.112,1.334,.336,1.019,1.2-.355,.976-1.4128,1.179-2.6929,1.179-.5303,0-.7722,0-1.3235,.0051h-8.8376l-.3795,.0011c6.0136-2.378,10.2852-8.2369,10.2852-15.086,0-8.9492-7.2803-16.2295-16.228-16.2295-.1364,0-.2686,.0171-.4042,.0204l.0949-.0279h-12.5795c-1.728,0-2.826,.9919-3.542,2.08h-.08l.758-2.08h-8.592l1.06-2.912h-1.232l-.787,2.16c-.203,.56-.481,.752-1.025,.752h-4.9665c-.3182-.114-.6713-.192-1.0915-.192-.4199,0-.8339,.0778-1.2413,.192h-4.2207c-1.728,0-2.825,.9919-3.541,2.08h-.08l.757-2.08H3.005l-.396,1.088h2.416l-2.213,6.08H.396l-.396,1.088H6.896l.396-1.088h-3.2l1.299-3.568c.466-1.28,1.692-2.32,3.308-2.32h2.8461c-.7969,.7327-1.4645,1.699-1.8881,2.864-.95,2.608-.063,4.304,2.305,4.304,1.632,0,3.107-.8,4.005-1.9041l-.711-.64c-.758,.896-1.788,1.44-2.892,1.44-1.552,0-2.144-1.056-1.614-2.512l.14-.384h6.112l.221-.608c.3998-1.0987,.4165-2.0463,.1047-2.752h4.0653l-1.922,5.28c-.402,1.104-.111,1.888,1.137,1.888h3.216l.396-1.088h-3.76l2.213-6.08h7.312l-2.213,6.08h-2.416l-.396,1.088h6.896l.396-1.088h-3.2l1.298-3.568c.466-1.28,1.693-2.32,3.309-2.32h7.4572c-5.8293,2.4641-9.9305,8.2401-9.9305,14.957,0,8.9482,7.2798,16.2285,16.228,16.2285,.1574,0,.31-.0192,.4663-.0236h14.1462c.5627-.0179,.8981-.0281,1.449-.0531,3.0294-.1374,3.8149-.6989,4.4089-2.3309,.652-1.792-.88-2.112-2-2.288l-1.226-.192c-.695-.112-1.333-.336-1.019-1.2,.309-.848,1.467-1.0779,2.0584-1.0981,.4332-.0148,.9396-.0305,1.7288,0h1.9874c-.0015-.0021-.0034-.0038-.0048-.006h1.4021l-1.922,5.28c-.402,1.104-.111,1.888,1.137,1.888h5.7958c.312,.1238,.6922,.192,1.1423,.192,1.344,0,2.343-.592,3.039-1.5359h.08c-.184,.768-.009,1.344,.983,1.344h3.247l2.085-5.728c.396-1.088,1.601-1.584,2.625-1.584,1.264,0,1.684,.736,1.137,2.24l-1.847,5.072h1.28v-.0002h3.3258c.2828,.1151,.6017,.1922,.9882,.1922,1.152,0,2.209-.528,3.103-1.5359h.065l-.49,1.344h1.28l4.31-11.84h-1.28ZM16.039,6.224l-.064,.176h-4.736l.041-.112c.524-1.44,1.954-2.512,3.362-2.512,1.36,0,1.927,.992,1.397,2.448Zm16.2805,12.925c0-8.3232,6.7715-15.0947,15.0942-15.0947s15.0933,6.7715,15.0933,15.0947-6.7705,15.0938-15.0933,15.0938-15.0942-6.7705-15.0942-15.0938Zm48.0676,13.8049c-.309,.848-1.497,1.52-2.809,1.52-1.056,0-1.549-.448-1.24-1.296l.122-.336c.291-.8,1.142-1.248,2.662-1.248h1.76l-.495,1.36Zm18.242-3.216l-1.083,2.976c-.402,1.104-1.593,1.696-2.729,1.696-1.488,0-1.991-.992-1.449-2.48l.512-1.408c.5421-1.488,1.767-2.48,3.255-2.48,1.136,0,1.896,.592,1.494,1.696Z"/></svg>